<?xml version="1.0" encoding="UTF-8"?>
<svg xmlns="http://www.w3.org/2000/svg" version="1.1" width="1600" height="1406.06" viewBox="-1050 -4750 6600 5800" data-floorplan-schema="0.1" data-level-id="level_eg" data-project-id="fixture_01" data-quality="verified" data-unit="mm">
  <title>Fixture 01 - Simple Room — Ground floor</title>
  <desc>Deterministically rendered from a canonical floorplan model. Coordinates are millimetres; the Y axis is flipped for SVG. Quality level: verified.</desc>
  <g font-family="Georgia, &apos;Times New Roman&apos;, serif">
    <rect x="-1050" y="-4750" width="6600" height="5800" fill="#ffffff"/>
    <g data-layer="spaces">
      <path d="M 150 -150 L 4350 -150 L 4350 -3550 L 150 -3550 Z" fill="#f3ece2" data-type="space" data-id="space_room"/>
    </g>
    <g data-layer="walls">
      <path d="M -150 150 L 1745 150 L 1745 -150 L 150 -150 Z M 2755 150 L 4650 150 L 4350 -150 L 2755 -150 Z M 4650 150 L 4650 -3850 L 4350 -3550 L 4350 -150 Z M 4650 -3850 L 3900 -3850 L 3900 -3550 L 4350 -3550 Z M 2700 -3850 L 1800 -3850 L 1800 -3550 L 2700 -3550 Z M 600 -3850 L -150 -3850 L 150 -3550 L 600 -3550 Z M -150 -3850 L -150 150 L 150 -150 L 150 -3550 Z" fill="#3c3a37" stroke="none" fill-rule="nonzero" data-type="wall-fill" data-ids="wall_001 wall_002 wall_003 wall_004"/>
    </g>
    <g data-layer="openings">
      <g data-type="door" data-id="door_001">
        <path d="M 1745 -150 L 1745 -1160 L 1790 -1160 L 1790 -150 Z" fill="#ffffff" stroke="#7a736b" stroke-width="4.125" stroke-linejoin="miter"/>
        <path d="M 1745 -1160 A 1010 1010 0 0 1 2755 -150" fill="none" stroke="#bcb5ac" stroke-width="3.3"/>
      </g>
      <g data-type="window" data-id="window_001">
        <path d="M 3900 -3850 L 2700 -3850 L 2700 -3550 L 3900 -3550 Z" fill="#ffffff" stroke="none"/>
        <path d="M 3900 -3850 L 2700 -3850" fill="none" stroke="#7a736b" stroke-width="4.5375"/>
        <path d="M 3900 -3550 L 2700 -3550" fill="none" stroke="#7a736b" stroke-width="4.5375"/>
        <path d="M 3900 -3850 L 3900 -3550" fill="none" stroke="#a8a29e" stroke-width="4.125"/>
        <path d="M 2700 -3850 L 2700 -3550" fill="none" stroke="#a8a29e" stroke-width="4.125"/>
      </g>
      <g data-type="window" data-id="window_002">
        <path d="M 1800 -3850 L 600 -3850 L 600 -3550 L 1800 -3550 Z" fill="#ffffff" stroke="none"/>
        <path d="M 1800 -3850 L 600 -3850" fill="none" stroke="#7a736b" stroke-width="4.5375"/>
        <path d="M 1800 -3550 L 600 -3550" fill="none" stroke="#7a736b" stroke-width="4.5375"/>
        <path d="M 1800 -3850 L 1800 -3550" fill="none" stroke="#a8a29e" stroke-width="4.125"/>
        <path d="M 600 -3850 L 600 -3550" fill="none" stroke="#a8a29e" stroke-width="4.125"/>
      </g>
    </g>
    <g data-layer="labels">
      <g data-type="space-label" data-id="space_room">
        <text x="2250" y="-1887.13" font-size="61.8751" font-weight="bold" letter-spacing="3.3" fill="#2f2b28" text-anchor="middle" dominant-baseline="middle">ROOM</text>
        <text x="2250" y="-1806.69" font-size="49.5" letter-spacing="3.3" fill="#8a827a" text-anchor="middle" dominant-baseline="middle">14,3 m²</text>
      </g>
    </g>
  </g>
</svg>
